<svg xmlns="http://www.w3.org/2000/svg" class="ionicon" viewBox="0 0 512 512" class="a"><style>.a{version:1;}.b{stop-color:#000;stop-opacity:1;}.c{baseline-shift:baseline;clip-rule:nonzero;color-interpolation-filters:linearRGB;color-interpolation:sRGB;color-rendering:auto;color:#000;direction:ltr;display:inline;dominant-baseline:auto;enable-background:accumulate;fill-opacity:1;fill-rule:nonzero;fill:none;font-family:sans-serif;font-feature-settings:normal;font-size:medium;font-stretch:normal;font-style:normal;font-variant-alternates:normal;font-variant-caps:normal;font-variant-east-asian:normal;font-variant-ligatures:normal;font-variant-numeric:normal;font-variant-position:normal;font-variant:normal;font-variation-settings:normal;font-weight:normal;image-rendering:auto;inline-size:0;isolation:auto;letter-spacing:normal;line-height:normal;mix-blend-mode:normal;opacity:1;overflow:visible;shape-margin:0;shape-padding:0;shape-rendering:auto;solid-color:#000;solid-opacity:1;stop-color:#000;stop-opacity:1;stroke-dasharray:none;stroke-dashoffset:0;stroke-linecap:round;stroke-linejoin:round;stroke-miterlimit:4;stroke-opacity:1;stroke-width:8;stroke:#000;text-align:start;text-anchor:start;text-decoration-color:#000;text-decoration-line:none;text-decoration-style:solid;text-decoration:none;text-indent:0;text-orientation:mixed;text-rendering:auto;text-transform:none;vector-effect:none;visibility:visible;white-space:normal;word-spacing:normal;writing-mode:lr-tb;}</style><metadata class="undefined"/><defs class="undefined"><linearGradient class="undefined"><stop offset="0" class="b"/></linearGradient></defs><title class="undefined">  Wifi</title><path d="M256 416a32 32 0 1132-32 32 32 0 1-32 32z" class="undefined"/><path d="M256 265.6C224.9 265.6 193.8 276.6 169 298.6A16 16 0 0 0 167.6 321.2 16 16 0 0 0 190.2 322.5C227.8 289.1 284.2 289.1 321.8 322.5A16 16 0 0 0 344.4 321.2 16 16 0 0 0 343 298.6C318.3 276.6 287.2 265.6 256 265.6z" class="c"/><path d="M256 179.4C202.7 179.4 149.3 198.9 107.6 237.9A16 16 0 0 0 106.9 260.5 16 16 0 0 0 129.5 261.2C200.8 194.5 311.2 194.5 382.5 261.2A16 16 0 0 0 405.1 260.5 16 16 0 0 0 404.4 237.9C362.7 198.9 309.3 179.4 256 179.4z" class="c"/><path d="M256 93.1C183.6 93.1 111.2 118.8 53.6 170.2A16 16 0 0 0 52.3 192.8 16 16 0 0 0 74.9 194C178.2 101.9 333.8 101.9 437.1 194A16 16 0 0 0 459.7 192.8 16 16 0 0 0 458.4 170.2C400.8 118.8 328.4 93.1 256 93.1z" class="c"/></svg>
 